<?xml version="1.0" standalone="no"?>
<!DOCTYPE svg PUBLIC "-//W3C//DTD SVG 20010904//EN"
 "http://www.w3.org/TR/2001/REC-SVG-20010904/DTD/svg10.dtd">
<svg version="1.0" xmlns="http://www.w3.org/2000/svg"
 width="517.000000pt" height="517.000000pt" viewBox="0 0 517.000000 517.000000"
 preserveAspectRatio="xMidYMid meet">
<metadata>
Created by potrace 1.14, written by Peter Selinger 2001-2017
</metadata>
<g transform="translate(0.000000,517.000000) scale(0.100000,-0.100000)"
fill="#000000" stroke="none">
<path d="M1823 5017 c-32 -14 -51 -64 -52 -136 -1 -71 -2 -72 -74 -96 -112
-37 -267 -142 -347 -237 -69 -81 -117 -126 -229 -212 -548 -424 -880 -1106
-884 -1811 0 -89 9 -256 17 -305 3 -14 7 -41 10 -60 9 -57 16 -93 22 -120 3
-14 8 -36 10 -50 24 -137 132 -419 230 -599 135 -249 365 -527 561 -678 40
-31 73 -60 73 -64 0 -5 5 -9 10 -9 6 0 38 -19 71 -43 33 -23 68 -46 77 -52
108 -67 242 -137 322 -170 36 -14 74 -30 85 -35 48 -20 178 -61 270 -84 213
-53 268 -58 612 -53 342 4 388 10 594 72 46 14 91 27 99 29 8 2 58 21 110 41
145 56 302 138 435 226 l120 80 368 2 369 2 24 28 c22 26 24 36 24 147 0 179
-12 193 -165 194 -84 0 -92 2 -70 13 29 16 40 35 65 111 10 32 53 165 95 297
42 132 87 272 100 310 12 39 49 151 80 250 32 99 73 227 92 285 37 111 41 146
23 180 -10 19 -55 45 -72 42 -5 -1 -9 31 -9 71 -4 235 -57 509 -145 743 -146
391 -401 742 -727 1003 -99 80 -231 171 -247 171 -5 0 -10 3 -10 8 0 4 -10 12
-23 18 -12 6 -60 31 -107 55 -219 114 -461 193 -720 235 -126 20 -493 28 -593
12 -37 -6 -70 -8 -73 -5 -3 3 -6 34 -6 69 -1 65 -18 111 -47 124 -25 12 -344
12 -368 1z"/>
</g>
</svg>
